<?xml version="1.0" encoding="UTF-8"?>
<svg id="Capa_2" data-name="Capa 2" xmlns="http://www.w3.org/2000/svg" viewBox="0 0 360 124.29">
  <defs>
    <style>
      .cls-1 {
        stroke-linecap: round;
        stroke-linejoin: round;
      }

      .cls-1, .cls-2 {
        fill: #fff;
        stroke: #fff;
      }

      .cls-2 {
        stroke-miterlimit: 10;
      }
    </style>
  </defs>
  <g id="Capa_1-2" data-name="Capa 1">
    <g>
      <g>
        <path class="cls-2" d="m39.47,52.91L11.63,119.58c-.49,1.32-1.24,2.35-2.23,3.09-.99.74-2.1,1.11-3.34,1.11-1.9,0-3.3-.51-4.21-1.55-.91-1.03-1.36-2.33-1.36-3.9,0-.58.12-1.24.37-1.98l31.42-75.96c.49-1.4,1.3-2.47,2.41-3.22,1.11-.74,2.33-1.07,3.65-.99,1.32,0,2.51.37,3.59,1.11,1.07.74,1.86,1.77,2.35,3.09l31.05,74.84c.33.83.49,1.65.49,2.47,0,1.81-.6,3.28-1.79,4.39-1.2,1.11-2.54,1.67-4.02,1.67-1.24,0-2.37-.39-3.4-1.18-1.03-.78-1.79-1.79-2.29-3.03l-28.08-66.43,3.22-.25Z"/>
        <path class="cls-2" d="m150.93,36.45c1.73,0,3.22.58,4.45,1.73,1.24,1.16,1.86,2.6,1.86,4.33,0,.83-.21,1.73-.62,2.72l-31.3,73.98c-.66,1.4-1.55,2.43-2.66,3.09-1.11.66-2.25.99-3.4.99-1.16-.08-2.25-.45-3.28-1.11-1.03-.66-1.84-1.61-2.41-2.85l-31.3-74.1c-.25-.41-.41-.84-.49-1.3-.08-.45-.12-.88-.12-1.3,0-1.98.72-3.5,2.17-4.58,1.44-1.07,2.82-1.61,4.14-1.61,2.64,0,4.58,1.36,5.81,4.08l28.33,67.17h-3.59l26.72-67.3c1.15-2.64,3.05-3.96,5.69-3.96Z"/>
        <path class="cls-2" d="m184.21,116.99c-.08,1.81-.76,3.32-2.04,4.52-1.28,1.2-2.78,1.79-4.52,1.79-1.98,0-3.55-.6-4.7-1.79-1.16-1.19-1.73-2.7-1.73-4.52V43.01c0-1.81.62-3.32,1.86-4.52,1.24-1.19,2.85-1.79,4.82-1.79,1.65,0,3.11.6,4.39,1.79,1.28,1.2,1.92,2.7,1.92,4.52v73.98Z"/>
        <path class="cls-2" d="m240.74,36.7c6.02,0,11.32,1.14,15.9,3.4,4.58,2.27,8.43,5.4,11.57,9.4,3.13,4,5.48,8.62,7.05,13.86,1.57,5.24,2.35,10.78,2.35,16.64,0,8-1.4,15.28-4.21,21.83-2.8,6.56-6.93,11.77-12.37,15.65-5.44,3.88-12.21,5.81-20.29,5.81h-30.18c-1.82,0-3.32-.6-4.52-1.79-1.2-1.19-1.79-2.7-1.79-4.52V43.01c0-1.81.6-3.32,1.79-4.52,1.19-1.19,2.7-1.79,4.52-1.79h30.18Zm-1.24,74.72c5.77,0,10.49-1.44,14.16-4.33,3.67-2.89,6.35-6.7,8.04-11.44,1.69-4.74,2.54-9.96,2.54-15.65,0-4.12-.48-8.08-1.42-11.88-.95-3.79-2.43-7.15-4.45-10.08-2.02-2.93-4.58-5.24-7.67-6.93-3.09-1.69-6.83-2.54-11.2-2.54h-23.38l1.11-.99v65.07l-.74-1.24h23.01Z"/>
        <path class="cls-2" d="m323.13,52.91l-27.83,66.68c-.49,1.32-1.24,2.35-2.23,3.09-.99.74-2.1,1.11-3.34,1.11-1.9,0-3.3-.51-4.21-1.55-.91-1.03-1.36-2.33-1.36-3.9,0-.58.12-1.24.37-1.98l31.42-75.96c.49-1.4,1.3-2.47,2.41-3.22,1.11-.74,2.33-1.07,3.65-.99,1.32,0,2.51.37,3.59,1.11,1.07.74,1.86,1.77,2.35,3.09l31.05,74.84c.33.83.49,1.65.49,2.47,0,1.81-.6,3.28-1.79,4.39-1.2,1.11-2.54,1.67-4.02,1.67-1.24,0-2.37-.39-3.4-1.18-1.03-.78-1.79-1.79-2.29-3.03l-28.08-66.43,3.22-.25Z"/>
      </g>
      <path class="cls-1" d="m40.25,29.52c-2.85-3.53-1.83-9.12.2-12.54,3.05-5.13,9.13-6.67,12.5-7.52,5.27-1.33,6.96-.13,10.92-1.82,4.01-1.71,6.58-4.77,8.14-7.15.23,3.98-.05,9.66-2.47,15.82-1.49,3.78-3.45,8.78-8.63,12.53-1.18.85-6.95,5.02-14.04,3.83-1.82-.31-4.71-.8-6.61-3.15Z"/>
    </g>
  </g>
</svg>